<?xml version="1.0" encoding="iso-8859-1"?>
<!-- Generator: Adobe Illustrator 19.0.0, SVG Export Plug-In . SVG Version: 6.00 Build 0)  -->
<svg version="1.1" id="Capa_1" xmlns="http://www.w3.org/2000/svg" xmlns:xlink="http://www.w3.org/1999/xlink" x="0px" y="0px"
	 viewBox="0 0 512.007 512.007" style="enable-background:new 0 0 512.007 512.007;" xml:space="preserve">
<circle style="fill:#F6CE6E;" cx="99.366" cy="40.895" r="19.995"/>
<path style="opacity:0.1;enable-background:new    ;" d="M113.32,26.575c1.62,3.553,2.221,7.615,1.492,11.751
	c-1.918,10.875-12.288,18.137-23.164,16.22c-4.112-0.725-7.705-2.66-10.483-5.372c2.639,5.789,7.988,10.224,14.727,11.413
	c10.875,1.918,21.246-5.344,23.164-16.219C120.249,37.603,117.89,31.036,113.32,26.575z"/>
<circle style="fill:#B692DF;" cx="199.086" cy="104.552" r="19.995"/>
<path style="opacity:0.1;enable-background:new    ;" d="M213.044,90.231c1.62,3.553,2.221,7.615,1.492,11.751
	c-1.918,10.875-12.288,18.137-23.164,16.219c-4.112-0.725-7.705-2.66-10.483-5.372c2.639,5.789,7.988,10.224,14.727,11.413
	c10.875,1.918,21.246-5.344,23.164-16.219C219.972,101.26,217.613,94.693,213.044,90.231z"/>
<circle style="fill:#7ED3E9;" cx="157.266" cy="67.787" r="15.787"/>
<path style="opacity:0.1;enable-background:new    ;" d="M168.286,56.481c1.279,2.805,1.754,6.012,1.178,9.278
	c-1.514,8.586-9.702,14.32-18.288,12.806c-3.246-0.572-6.083-2.1-8.277-4.241c2.084,4.57,6.307,8.072,11.628,9.011
	c8.586,1.514,16.775-4.219,18.289-12.806C173.756,65.189,171.894,60.004,168.286,56.481z"/>
<circle style="fill:#6A95E6;" cx="284.916" cy="114.672" r="19.995"/>
<path style="opacity:0.1;enable-background:new    ;" d="M298.868,100.358c1.62,3.553,2.221,7.615,1.492,11.751
	c-1.918,10.875-12.288,18.137-23.164,16.219c-4.112-0.725-7.705-2.66-10.483-5.372c2.639,5.789,7.988,10.224,14.727,11.413
	c10.875,1.918,21.246-5.344,23.164-16.219C305.796,111.386,303.437,104.819,298.868,100.358z"/>
<circle style="fill:#F6CE6E;" cx="258.286" cy="265.722" r="14.242"/>
<path style="opacity:0.1;enable-background:new    ;" d="M268.219,255.521c1.154,2.531,1.582,5.424,1.063,8.37
	c-1.366,7.746-8.753,12.919-16.499,11.553c-2.929-0.516-5.488-1.894-7.467-3.826c1.88,4.123,5.69,7.283,10.49,8.129
	c7.746,1.366,15.133-3.806,16.499-11.553C273.155,263.376,271.474,258.699,268.219,255.521z"/>
<circle style="fill:#6A95E6;" cx="72.666" cy="160.032" r="25.605"/>
<path style="opacity:0.1;enable-background:new    ;" d="M90.531,141.697c2.075,4.55,2.845,9.751,1.911,15.048
	c-2.456,13.927-15.736,23.226-29.662,20.77c-5.265-0.928-9.867-3.406-13.424-6.879c3.38,7.413,10.229,13.093,18.859,14.615
	c13.927,2.456,27.207-6.843,29.663-20.77C99.404,155.82,96.383,147.41,90.531,141.697z"/>
<circle style="fill:#B692DF;" cx="25.348" cy="258.182" r="17.835"/>
<path style="opacity:0.1;enable-background:new    ;" d="M37.795,245.412c1.445,3.169,1.982,6.792,1.331,10.482
	c-1.71,9.701-10.961,16.178-20.661,14.467c-3.668-0.647-6.873-2.372-9.351-4.791c2.354,5.163,7.125,9.12,13.136,10.18
	c9.701,1.711,18.951-4.767,20.662-14.467C43.976,255.248,41.871,249.39,37.795,245.412z"/>
<circle style="fill:#6A95E6;" cx="47.83" cy="360.972" r="25.482"/>
<path style="opacity:0.1;enable-background:new    ;" d="M65.614,342.722c2.065,4.528,2.831,9.704,1.902,14.975
	c-2.444,13.859-15.66,23.114-29.52,20.67c-5.24-0.924-9.819-3.389-13.359-6.845c3.364,7.377,10.18,13.03,18.768,14.544
	c13.86,2.444,27.076-6.81,29.52-20.67C74.444,356.777,71.438,348.408,65.614,342.722z"/>
<circle style="fill:#F6CE6E;" cx="120.876" cy="432.972" r="15.419"/>
<path style="opacity:0.1;enable-background:new    ;" d="M131.638,421.925c1.249,2.74,1.713,5.872,1.151,9.062
	c-1.479,8.386-9.476,13.986-17.862,12.507c-3.171-0.559-5.942-2.051-8.084-4.142c2.035,4.464,6.16,7.884,11.357,8.801
	c8.386,1.479,16.384-4.121,17.863-12.507C136.98,430.429,135.16,425.365,131.638,421.925z"/>
<circle style="fill:#6A95E6;" cx="484.496" cy="108.802" r="19.995"/>
<path style="opacity:0.1;enable-background:new    ;" d="M498.46,94.485c1.62,3.553,2.221,7.615,1.492,11.751
	c-1.918,10.875-12.288,18.137-23.164,16.22c-4.112-0.725-7.705-2.66-10.483-5.372c2.639,5.789,7.988,10.224,14.727,11.413
	c10.875,1.918,21.246-5.344,23.164-16.219C505.389,105.513,503.029,98.946,498.46,94.485z"/>
<circle style="fill:#7ED3E9;" cx="369.026" cy="134.512" r="19.995"/>
<path style="opacity:0.1;enable-background:new    ;" d="M382.98,120.196c1.62,3.553,2.221,7.615,1.492,11.751
	c-1.918,10.875-12.288,18.137-23.164,16.219c-4.112-0.725-7.705-2.66-10.483-5.372c2.64,5.789,7.988,10.224,14.727,11.413
	c10.875,1.918,21.246-5.344,23.164-16.219C389.908,131.224,387.549,124.657,382.98,120.196z"/>
<circle style="fill:#F6CE6E;" cx="420.886" cy="114.272" r="15.787"/>
<path style="opacity:0.1;enable-background:new    ;" d="M431.914,102.966c1.279,2.805,1.754,6.012,1.178,9.278
	c-1.514,8.586-9.702,14.32-18.289,12.806c-3.246-0.572-6.084-2.1-8.277-4.241c2.084,4.57,6.307,8.072,11.628,9.011
	c8.587,1.514,16.775-4.219,18.289-12.806C437.385,111.673,435.522,106.488,431.914,102.966z"/>
<circle style="fill:#B692DF;" cx="468.856" cy="229.892" r="25.605"/>
<path style="opacity:0.1;enable-background:new    ;" d="M486.72,211.556c2.075,4.55,2.845,9.751,1.911,15.048
	c-2.456,13.927-15.736,23.226-29.663,20.77c-5.265-0.928-9.867-3.406-13.424-6.879c3.38,7.413,10.229,13.093,18.859,14.615
	c13.927,2.456,27.207-6.843,29.663-20.77C495.593,225.678,492.572,217.269,486.72,211.556z"/>
<circle style="fill:#6A95E6;" cx="479.736" cy="338.312" r="17.835"/>
<path style="opacity:0.1;enable-background:new    ;" d="M492.189,325.534c1.445,3.169,1.981,6.792,1.331,10.482
	c-1.711,9.701-10.961,16.178-20.661,14.467c-3.668-0.647-6.873-2.372-9.351-4.791c2.354,5.164,7.125,9.12,13.136,10.18
	c9.701,1.71,18.951-4.767,20.661-14.467C498.369,335.37,496.265,329.512,492.189,325.534z"/>
<circle style="fill:#F6CE6E;" cx="423.456" cy="427.212" r="25.482"/>
<path style="opacity:0.1;enable-background:new    ;" d="M441.243,408.957c2.065,4.528,2.831,9.704,1.902,14.975
	c-2.444,13.859-15.66,23.114-29.52,20.67c-5.24-0.924-9.819-3.389-13.359-6.846c3.364,7.377,10.18,13.03,18.768,14.544
	c13.86,2.444,27.076-6.81,29.52-20.67C450.073,423.01,447.067,414.642,441.243,408.957z"/>
<circle style="fill:#B692DF;" cx="330.196" cy="469.882" r="15.419"/>
<path style="opacity:0.1;enable-background:new    ;" d="M340.956,458.834c1.249,2.74,1.713,5.872,1.151,9.062
	c-1.479,8.386-9.476,13.986-17.862,12.508c-3.171-0.559-5.942-2.051-8.084-4.142c2.035,4.464,6.16,7.884,11.357,8.801
	c8.386,1.479,16.384-4.121,17.862-12.507C346.299,467.338,344.479,462.274,340.956,458.834z"/>
<circle style="fill:#7ED3E9;" cx="222.066" cy="471.122" r="19.995"/>
<path style="opacity:0.1;enable-background:new    ;" d="M236.018,456.794c1.62,3.553,2.221,7.615,1.492,11.751
	c-1.918,10.875-12.288,18.137-23.164,16.219c-4.112-0.725-7.705-2.66-10.483-5.372c2.639,5.789,7.988,10.224,14.727,11.413
	c10.875,1.918,21.246-5.344,23.164-16.219C242.947,467.822,240.587,461.255,236.018,456.794z"/>
<path d="M397.973,60.106c4.143,0,7.5-3.358,7.5-7.5V51.39c0-4.142-3.357-7.5-7.5-7.5s-7.5,3.358-7.5,7.5v1.216
	C390.473,56.748,393.83,60.106,397.973,60.106z M239.288,51.842c4.143,0,7.5-3.358,7.5-7.5v-1.215c0-4.142-3.357-7.5-7.5-7.5
	s-7.5,3.358-7.5,7.5v1.215C231.788,48.484,235.146,51.842,239.288,51.842z M330.888,87.079c4.143,0,7.5-3.358,7.5-7.5v-1.216
	c0-4.142-3.357-7.5-7.5-7.5s-7.5,3.358-7.5,7.5v1.216C323.388,83.721,326.745,87.079,330.888,87.079z M466.306,446.347
	c-4.143,0-7.5,3.358-7.5,7.5v1.216c0,4.142,3.357,7.5,7.5,7.5c4.142,0,7.5-3.358,7.5-7.5v-1.216
	C473.805,449.705,470.449,446.347,466.306,446.347z M60.457,460c-4.143,0-7.5,3.358-7.5,7.5v1.215c0,4.142,3.357,7.5,7.5,7.5
	s7.5-3.358,7.5-7.5V467.5C67.957,463.358,64.6,460,60.457,460z M490.166,315.206c0.889-18.477-1.601-37.012-7.431-55.274
	c1.764-0.82,3.476-1.782,5.103-2.921c7.243-5.072,12.078-12.662,13.613-21.369c1.536-8.709-0.411-17.494-5.483-24.738
	c-3.519-5.026-8.252-8.889-13.728-11.298l4.44-17.59c1.014-4.017-1.42-8.094-5.437-9.107c-4.006-1.009-8.093,1.42-9.106,5.436
	l-4.663,18.476c-15.199,0.63-28.48,11.746-31.227,27.323c-3.17,17.977,8.877,35.181,26.854,38.351
	c1.619,0.285,3.24,0.443,4.854,0.49c5.509,16.672,7.951,33.57,7.28,50.389c-10.137,1.843-18.554,9.807-20.445,20.533
	c-1.775,10.066,2.69,19.81,10.599,25.268c-5.787,14.314-14.005,27.722-24.515,40.001c-3.492-2.163-7.436-3.701-11.689-4.451
	c-17.918-3.154-35.05,8.845-38.209,26.754c-1.035,5.872-0.433,11.657,1.465,16.898c-13.391,7.551-27.939,13.75-43.383,18.513
	c-3.363-4.884-8.599-8.474-14.886-9.583c-6.03-1.063-12.111,0.286-17.126,3.797c-5.001,3.502-8.342,8.737-9.414,14.745
	c-19.076,2.483-38.658,2.896-58.381,1.231c-1.698-11.379-10.479-20.938-22.417-23.043c-7.235-1.275-14.53,0.343-20.546,4.555
	c-3.556,2.491-6.407,5.716-8.412,9.427c-19.1-5.181-37.355-12.265-54.426-21.121c2.163-12.428-6.17-24.31-18.597-26.501
	c-6.293-1.11-12.444,0.475-17.275,3.917c-3.386-2.566-6.703-5.208-9.894-7.91c-3.162-2.678-7.895-2.284-10.57,0.878
	c-2.677,3.161-2.284,7.893,0.877,10.57c3.509,2.971,7.158,5.876,10.884,8.689c-0.232,0.797-0.426,1.612-0.574,2.448
	c-1.063,6.029,0.285,12.111,3.797,17.125c3.511,5.015,8.766,8.362,14.794,9.425c1.345,0.237,2.691,0.354,4.029,0.354
	c4.659,0,9.2-1.422,13.097-4.151c0.76-0.532,1.467-1.116,2.148-1.725c18.324,9.541,37.93,17.142,58.44,22.656
	c0.278,5.06,1.952,9.956,4.93,14.211c4.213,6.016,10.516,10.032,17.748,11.307c1.608,0.283,3.208,0.421,4.788,0.421
	c10.987,0,20.925-6.642,25.228-16.655c8.558,0.742,17.095,1.131,25.583,1.131c12.504,0,24.902-0.812,37.108-2.42
	c3.208,5.99,9.026,10.51,16.221,11.779c1.345,0.237,2.691,0.354,4.028,0.354c4.659,0,9.201-1.423,13.098-4.151
	c5.015-3.512,8.362-8.766,9.425-14.794c0.147-0.835,0.243-1.667,0.298-2.495c16.939-5.191,32.886-12.024,47.556-20.379
	c4.559,4.392,10.423,7.524,17.112,8.703c1.948,0.343,3.895,0.512,5.826,0.512c8.244,0,16.166-3.085,22.361-8.838
	c3.035-2.819,3.211-7.564,0.392-10.599c-2.82-3.035-7.565-3.212-10.6-0.392c-4.174,3.875-9.78,5.532-15.375,4.545
	c-9.765-1.722-16.308-11.067-14.587-20.831c1.722-9.765,11.064-16.313,20.832-14.586c8.194,1.445,14.291,8.241,14.826,16.528
	c0.268,4.133,3.835,7.281,7.968,7c4.134-0.267,7.268-3.834,7.001-7.968c-0.36-5.566-2.09-10.762-4.87-15.247
	c12.217-14.079,21.69-29.561,28.245-46.163c0.015,0,0.03,0.002,0.045,0.002c5.15,0,10.17-1.573,14.477-4.588
	c5.543-3.882,9.243-9.69,10.418-16.354c1.176-6.665-0.314-13.388-4.196-18.932C497.839,319.983,494.282,317.055,490.166,315.206z
	 M128.675,434.343c-0.151,0.855-0.441,1.66-0.843,2.402c-0.033,0.056-0.07,0.107-0.102,0.164c-0.017,0.03-0.029,0.062-0.045,0.092
	c-0.567,0.957-1.329,1.796-2.268,2.453c-1.731,1.213-3.835,1.679-5.918,1.311c-2.083-0.367-3.898-1.523-5.111-3.256
	c-1.214-1.733-1.68-3.835-1.313-5.917c0.198-1.123,0.63-2.144,1.229-3.034c0.013-0.018,0.029-0.033,0.042-0.052
	c0.044-0.061,0.078-0.125,0.12-0.187c1.466-2.015,3.837-3.273,6.405-3.273c0.455,0,0.916,0.039,1.379,0.121
	C126.552,425.927,129.433,430.043,128.675,434.343z M234.424,472.833c-0.013,0.091-0.033,0.18-0.043,0.272
	c-0.005,0.047-0.004,0.093-0.008,0.139c-0.002,0.013-0.003,0.026-0.005,0.038c-1.197,6.786-7.689,11.333-14.476,10.136
	c-3.287-0.579-6.151-2.404-8.065-5.138c-1.915-2.734-2.649-6.05-2.07-9.337c0.006-0.032,0.016-0.063,0.021-0.095
	c0.007-0.027,0.02-0.051,0.026-0.077c0.021-0.086,0.032-0.173,0.05-0.259c0.659-3.103,2.428-5.805,5.041-7.634
	c2.124-1.487,4.6-2.263,7.141-2.263c0.729,0,1.463,0.064,2.196,0.193C230.867,459.978,235.346,466.214,234.424,472.833z
	 M337.994,471.252c-0.367,2.083-1.524,3.898-3.257,5.111c-1.733,1.214-3.835,1.681-5.917,1.312c-3.35-0.591-5.83-3.221-6.409-6.387
	c-0.003-0.018-0.003-0.035-0.005-0.052c-0.007-0.048-0.021-0.094-0.029-0.142c-0.132-0.839-0.137-1.712,0.018-2.594
	c0.367-2.083,1.525-3.898,3.257-5.111c1.347-0.943,2.916-1.435,4.525-1.435c0.462,0,0.928,0.04,1.392,0.123
	c3.117,0.549,5.48,2.865,6.261,5.734c0.009,0.035,0.014,0.071,0.024,0.107c0.006,0.023,0.018,0.043,0.025,0.066
	C338.136,469.024,338.191,470.131,337.994,471.252z M465.707,247.722c-9.832-1.733-16.42-11.143-14.688-20.974
	c1.548-8.773,9.205-14.963,17.822-14.963c1.04,0,2.094,0.09,3.152,0.277c4.763,0.839,8.913,3.484,11.688,7.445
	c2.773,3.961,3.839,8.766,2.999,13.528l0,0c-0.84,4.763-3.484,8.913-7.445,11.687C475.273,247.497,470.467,248.562,465.707,247.722z
	 M489.919,340.1L489.919,340.1c-0.479,2.719-1.989,5.088-4.25,6.672c-2.262,1.584-5.009,2.191-7.723,1.712
	c-5.612-0.989-9.374-6.361-8.385-11.973c0.884-5.008,5.255-8.542,10.175-8.542c0.464,0,0.934,0.042,1.405,0.106
	c0.143,0.022,0.285,0.046,0.43,0.06c2.703,0.486,5.059,1.991,6.636,4.242C489.79,334.639,490.399,337.381,489.919,340.1z
	 M342.783,298.776c3.571,0,6.735-2.56,7.377-6.199l1.822-10.334c0.72-4.079-2.004-7.969-6.083-8.688
	c-4.087-0.716-7.969,2.004-8.689,6.084l-1.822,10.334c-0.72,4.079,2.004,7.969,6.083,8.689
	C341.912,298.739,342.35,298.776,342.783,298.776z M507.028,93.034c-4.213-6.016-10.516-10.031-17.748-11.307
	c-11.522-2.03-22.645,3.46-28.342,12.926c-3.545,0.319-7.035,1.178-10.42,2.594l-10.169,4.255
	c-3.402-5.179-8.84-9.005-15.408-10.163c-6.127-1.079-12.306,0.29-17.401,3.857c-5.096,3.568-8.497,8.907-9.576,15.032
	c-0.539,3.054-0.447,6.076,0.171,8.935l-5.036,2.107c-3.881-7.038-10.787-12.331-19.3-13.833
	c-7.235-1.275-14.529,0.342-20.545,4.555c-4.207,2.946-7.431,6.915-9.429,11.509c-10.209-4.02-20.739-7.508-31.469-10.395
	c-0.712-12.439-9.879-23.251-22.671-25.507c-12.792-2.254-25.104,4.769-30.027,16.215c-11.07-0.956-22.159-1.28-33.127-0.995
	c-0.306-4.999-1.977-9.832-4.923-14.039c-4.213-6.016-10.516-10.032-17.749-11.307c-8.51-1.499-16.811,1.113-22.865,6.398
	l-4.005-3.696c1.579-2.515,2.677-5.333,3.208-8.346c2.229-12.646-6.244-24.748-18.889-26.977c-6.568-1.159-12.988,0.577-17.956,4.28
	l-8.1-7.476c-2.698-2.49-5.684-4.49-8.907-6.002c-2.118-10.844-10.696-19.809-22.211-21.84
	c-14.929-2.628-29.219,7.372-31.853,22.304c-1.429,8.106,0.873,16.018,5.659,21.983c-0.496,1.842-0.853,3.726-1.049,5.643
	l-6.463,63.262c-14.837,1.002-27.68,11.992-30.376,27.278c-1.951,11.066,1.869,21.834,9.284,29.221
	c-11.725,15.169-20.406,31.737-25.89,49.406c-4.5,0.33-8.843,1.864-12.636,4.519c-5.544,3.882-9.243,9.69-10.418,16.354
	c-1.176,6.664,0.314,13.388,4.196,18.931c3.024,4.319,7.22,7.512,12.077,9.271c0.481,17.859,4.093,35.664,10.769,53.087
	c-6.156,4.841-10.626,11.869-12.09,20.171c-3.158,17.91,8.844,35.05,26.753,38.208c1.936,0.341,3.873,0.51,5.798,0.51
	c4.583,0,9.08-0.979,13.262-2.839c2.849,3.353,5.816,6.659,8.886,9.866c1.473,1.539,3.443,2.314,5.418,2.314
	c1.864,0,3.732-0.691,5.186-2.082c2.992-2.865,3.096-7.612,0.23-10.604c-2.658-2.777-5.229-5.634-7.71-8.528
	c3.652-4.369,6.123-9.631,7.138-15.389l0,0c1.53-8.676-0.41-17.429-5.463-24.645c-5.054-7.216-12.614-12.033-21.29-13.563
	c-4.271-0.752-8.494-0.634-12.497,0.211c-5.683-15.14-8.823-30.557-9.366-45.993c2.893-0.75,5.663-2.006,8.184-3.771
	c5.543-3.882,9.243-9.69,10.418-16.354c1.176-6.665-0.315-13.388-4.196-18.932c-2.138-3.053-4.862-5.543-7.99-7.364
	c5.123-16.033,13.196-31.074,24.074-44.852c1.523,0.507,3.1,0.913,4.727,1.2c1.937,0.341,3.863,0.506,5.765,0.506
	c15.755,0,29.759-11.319,32.587-27.359v-0.001c2.747-15.577-5.936-30.567-19.998-36.355l6.35-62.156
	c0.968,0.284,1.959,0.521,2.975,0.701c1.608,0.283,3.208,0.42,4.788,0.42c10.847,0,20.676-6.472,25.065-16.271
	c0.215,0.183,0.43,0.366,0.64,0.559l9.724,8.975c-0.186,0.683-0.347,1.378-0.472,2.088c-2.229,12.645,6.244,24.747,18.889,26.977
	c1.366,0.241,2.735,0.36,4.094,0.36c2.693,0,5.342-0.484,7.859-1.397l7.576,6.992c-0.301,1.008-0.553,2.041-0.74,3.102
	c-1.275,7.233,0.342,14.529,4.555,20.545c4.212,6.016,10.516,10.032,17.748,11.307c1.613,0.284,3.229,0.425,4.833,0.425
	c5.59,0,11.038-1.707,15.713-4.98c3.465-2.426,6.261-5.549,8.257-9.14c11.425-0.458,23.015-0.199,34.593,0.774
	c0.614,4.175,2.19,8.183,4.681,11.74c4.212,6.016,10.516,10.032,17.748,11.307c1.613,0.284,3.229,0.425,4.833,0.425
	c5.59,0,11.038-1.707,15.712-4.98c3.558-2.491,6.409-5.718,8.415-9.431c11.217,3.046,22.202,6.77,32.786,11.11
	c1.817,11.233,10.544,20.629,22.366,22.714c1.613,0.284,3.229,0.425,4.834,0.425c5.59,0,11.037-1.707,15.711-4.98
	c6.017-4.212,10.032-10.516,11.308-17.748v-0.001c0.187-1.061,0.303-2.118,0.366-3.168l9.515-3.981
	c3.021,2.531,6.719,4.332,10.871,5.065c1.362,0.24,2.718,0.356,4.056,0.356c11.081,0,20.932-7.962,22.922-19.245l0,0
	c0.125-0.71,0.212-1.418,0.27-2.123l12.208-5.107c0.257-0.108,0.516-0.203,0.774-0.3c0.887,12.267,9.998,22.867,22.648,25.097
	c1.013,0.178,2.027,0.28,3.038,0.346l-4.636,18.366c-1.015,4.016,1.42,8.094,5.436,9.107c0.616,0.155,1.233,0.23,1.842,0.23
	c3.354,0,6.408-2.267,7.266-5.667l5.125-20.302c0.471-1.864,0.78-3.752,0.944-5.648c0.517-0.314,1.03-0.637,1.53-0.987
	c6.017-4.213,10.032-10.516,11.307-17.749v0.001C512.857,106.347,511.24,99.05,507.028,93.034z M47.821,342.988
	c1.033,0,2.08,0.089,3.132,0.275c4.729,0.834,8.852,3.46,11.607,7.395c2.755,3.934,3.813,8.706,2.978,13.436v0.001
	c-0.834,4.73-3.46,8.852-7.395,11.607s-8.704,3.813-13.437,2.979c-9.765-1.722-16.308-11.066-14.587-20.831
	C31.659,349.136,39.264,342.988,47.821,342.988z M35.526,259.978v0.001c-0.479,2.718-1.989,5.087-4.25,6.671
	c-2.263,1.584-5.008,2.192-7.723,1.712c-2.719-0.479-5.088-1.989-6.672-4.25c-1.583-2.261-2.191-5.004-1.712-7.723
	c0.479-2.718,1.989-5.088,4.25-6.671c1.758-1.23,3.806-1.872,5.906-1.872c0.593,0,1.19,0.052,1.785,0.156
	c0.034,0.009,0.067,0.012,0.101,0.02c2.689,0.493,5.032,1.993,6.602,4.234C35.397,254.517,36.005,257.259,35.526,259.978z
	 M90.492,163.177c-1.734,9.832-11.146,16.424-20.975,14.686c-9.831-1.733-16.419-11.143-14.686-20.974
	c1.548-8.773,9.205-14.963,17.821-14.963c1.04,0,2.095,0.09,3.152,0.277C85.636,143.938,92.224,153.347,90.492,163.177z
	 M111.844,41.148c-0.013,0.634-0.059,1.272-0.172,1.916c-1.197,6.786-7.694,11.335-14.476,10.136
	c-2.156-0.38-4.082-1.298-5.674-2.587c-0.051-0.045-0.101-0.091-0.153-0.134c-3.317-2.778-5.113-7.196-4.31-11.753
	c1.068-6.055,6.354-10.328,12.3-10.328c0.718,0,1.445,0.063,2.176,0.191c6.001,1.058,10.243,6.261,10.318,12.143
	C111.848,40.871,111.841,41.01,111.844,41.148z M165.429,69.227c-0.378,2.144-1.558,4.014-3.322,5.283
	c-0.04,0.028-0.079,0.058-0.119,0.087c-1.808,1.253-3.994,1.735-6.159,1.352c-4.5-0.793-7.516-5.1-6.723-9.6
	c0.17-0.962,0.504-1.854,0.962-2.658c0.057-0.09,0.111-0.18,0.164-0.271c1.491-2.394,4.141-3.92,7.032-3.92
	c0.476,0,0.958,0.042,1.443,0.127C163.206,60.42,166.222,64.727,165.429,69.227z M211.394,106.72L211.394,106.72
	c-0.078,0.445-0.184,0.88-0.307,1.308c-0.05,0.133-0.093,0.27-0.135,0.406c-0.833,2.561-2.451,4.78-4.697,6.353
	c-2.733,1.914-6.047,2.649-9.337,2.07c-3.287-0.58-6.151-2.404-8.065-5.138c-1.915-2.734-2.649-6.05-2.07-9.336
	c0.239-1.353,0.698-2.61,1.318-3.757c0.094-0.153,0.175-0.311,0.257-0.469c2.224-3.721,6.29-6.101,10.726-6.101
	c0.717,0,1.444,0.063,2.175,0.191c3.287,0.58,6.151,2.404,8.065,5.138C211.239,100.118,211.973,103.434,211.394,106.72z
	 M297.218,116.847L297.218,116.847c-0.002,0.013-0.006,0.024-0.008,0.035c-0.012,0.045-0.029,0.088-0.04,0.133
	c-0.024,0.097-0.037,0.195-0.057,0.292c-0.664,3.091-2.429,5.782-5.034,7.605c-2.733,1.914-6.047,2.648-9.337,2.07
	c-3.287-0.58-6.151-2.404-8.065-5.138c-1.82-2.599-2.559-5.723-2.132-8.848c0.016-0.105,0.038-0.208,0.049-0.315
	c0.005-0.045,0.003-0.088,0.008-0.133c0.002-0.013,0.003-0.027,0.005-0.041c1.068-6.055,6.353-10.328,12.301-10.328
	c0.717,0,1.444,0.063,2.175,0.191C293.868,103.569,298.414,110.062,297.218,116.847z M381.33,136.686
	c-0.58,3.287-2.405,6.151-5.139,8.065s-6.054,2.651-9.337,2.069c-6.202-1.093-10.519-6.615-10.305-12.737
	c0.006-0.143,0.012-0.286,0.01-0.428c0.03-0.434,0.081-0.871,0.159-1.31c0.58-3.287,2.405-6.152,5.139-8.066
	c2.125-1.487,4.6-2.263,7.141-2.263c0.729,0,1.464,0.064,2.196,0.193c5.366,0.946,9.319,5.209,10.152,10.306
	c0.014,0.076,0.025,0.151,0.041,0.227C381.571,134.021,381.566,135.347,381.33,136.686z M429.058,115.711
	c-0.795,4.5-5.098,7.517-9.601,6.722c-2.258-0.398-4.141-1.681-5.358-3.429c-0.006-0.008-0.011-0.018-0.017-0.026
	c-1.196-1.731-1.741-3.914-1.348-6.145c0.385-2.18,1.595-4.079,3.408-5.349c1.409-0.986,3.051-1.501,4.735-1.501
	c0.484,0,0.971,0.042,1.457,0.128c3.425,0.604,5.984,3.244,6.665,6.454c0.014,0.082,0.027,0.163,0.044,0.245
	C429.213,113.745,429.232,114.722,429.058,115.711z M496.81,110.974L496.81,110.974c-0.58,3.288-2.404,6.152-5.139,8.066
	c-0.883,0.618-1.831,1.1-2.815,1.468c-0.137,0.048-0.272,0.1-0.405,0.155c-1.948,0.651-4.037,0.814-6.117,0.447
	c-6.784-1.196-11.331-7.69-10.136-14.475c0.11-0.621,0.274-1.217,0.468-1.798c0.067-0.169,0.125-0.343,0.18-0.518
	c1.845-4.798,6.497-8.011,11.652-8.011c0.718,0,1.445,0.063,2.176,0.191c3.287,0.58,6.151,2.404,8.065,5.138
	C496.655,104.372,497.389,107.688,496.81,110.974z M232.537,306.024c3.158,6.531,9.305,11.182,16.442,12.441
	c1.299,0.229,2.604,0.341,3.904,0.341c5.84,0,11.544-2.269,15.798-6.403c2.971-2.887,3.039-7.635,0.152-10.605
	c-2.886-2.97-7.634-3.039-10.605-0.152c-1.782,1.731-4.199,2.479-6.644,2.047c-2.441-0.43-4.462-1.96-5.544-4.198
	c-1.802-3.729-6.287-5.291-10.017-3.487C232.294,297.81,230.733,302.295,232.537,306.024z M170.149,268.336
	c3.571,0,6.735-2.56,7.377-6.199l1.822-10.334c0.72-4.079-2.004-7.969-6.083-8.688c-4.085-0.717-7.969,2.004-8.688,6.084
	l-1.822,10.334c-0.72,4.079,2.004,7.969,6.083,8.689C169.279,268.298,169.716,268.336,170.149,268.336z M254.503,287.133
	c1.272,0.224,2.537,0.332,3.786,0.332c10.347,0,19.544-7.434,21.401-17.968c1.009-5.719-0.27-11.489-3.602-16.247
	c-3.331-4.757-8.315-7.933-14.034-8.941c-11.819-2.083-23.105,5.831-25.188,17.636c-1.009,5.719,0.271,11.489,3.602,16.247
	C243.8,282.949,248.785,286.125,254.503,287.133z M251.639,264.55c0.576-3.267,3.429-5.572,6.637-5.572
	c0.388,0,0.78,0.033,1.174,0.103c1.774,0.313,3.319,1.297,4.353,2.773c1.033,1.475,1.43,3.264,1.117,5.038
	c-0.647,3.662-4.162,6.116-7.811,5.469c-1.774-0.313-3.319-1.297-4.352-2.772C251.723,268.113,251.327,266.324,251.639,264.55z"/>
<g>
</g>
<g>
</g>
<g>
</g>
<g>
</g>
<g>
</g>
<g>
</g>
<g>
</g>
<g>
</g>
<g>
</g>
<g>
</g>
<g>
</g>
<g>
</g>
<g>
</g>
<g>
</g>
<g>
</g>
</svg>
